<?xml version="1.0" encoding="UTF-8" standalone="no"?>
<!-- Created with Inkscape (http://www.inkscape.org/) -->

<svg
   xmlns:dc="http://purl.org/dc/elements/1.1/"
   xmlns:cc="http://creativecommons.org/ns#"
   xmlns:rdf="http://www.w3.org/1999/02/22-rdf-syntax-ns#"
   xmlns:svg="http://www.w3.org/2000/svg"
   xmlns="http://www.w3.org/2000/svg"
   xmlns:sodipodi="http://sodipodi.sourceforge.net/DTD/sodipodi-0.dtd"
   xmlns:inkscape="http://www.inkscape.org/namespaces/inkscape"
   id="svg2"
   version="1.1"
   inkscape:version="0.48.1 "
   width="573.18134"
   height="184.08488"
   sodipodi:docname="AJAX.svg">
  <metadata
     id="metadata8">
    <rdf:RDF>
      <cc:Work
         rdf:about="">
        <dc:format>image/svg+xml</dc:format>
        <dc:type
           rdf:resource="http://purl.org/dc/dcmitype/StillImage" />
        <dc:title />
      </cc:Work>
    </rdf:RDF>
  </metadata>
  <defs
     id="defs6" />
  <sodipodi:namedview
     pagecolor="#ffffff"
     bordercolor="#666666"
     borderopacity="1"
     objecttolerance="10"
     gridtolerance="10"
     guidetolerance="10"
     inkscape:pageopacity="0"
     inkscape:pageshadow="2"
     inkscape:window-width="1280"
     inkscape:window-height="1004"
     id="namedview4"
     showgrid="false"
     inkscape:zoom="1.1468583"
     inkscape:cx="301.48584"
     inkscape:cy="-73.258293"
     inkscape:window-x="-8"
     inkscape:window-y="-8"
     inkscape:window-maximized="1"
     inkscape:current-layer="layer2"
     fit-margin-top="0"
     fit-margin-left="0"
     fit-margin-right="0"
     fit-margin-bottom="0" />
  <g
     inkscape:groupmode="layer"
     id="layer2"
     inkscape:label="Vector"
     style="display:inline"
     transform="translate(-36.702717,-3.1961211)">
    <path
       style="fill:#f35a21;fill-opacity:1;stroke:none"
       d="m 120.3125,72 -23.84375,0.15625 0,31.875 c 0.375933,3.13921 -3.129951,1.31348 -8.21875,0 -59.564574,-9.69496 -59.103986,59.89958 -40.356969,73.34477 14.167771,10.16099 26.558296,10.32829 40.356969,6.68648 8.66563,-1.7332 11.490191,-8.20342 11.536753,-5.90326 l 0.119497,5.90326 20.40625,0 z m -24.34375,50.03125 0,43.875 c 0,0 -25.276192,7.68925 -32.40625,0 -8.070401,-8.70334 -5.667401,-36.68984 3.427332,-43.54942 7.712487,-5.81704 18.542664,-3.53057 28.978918,-0.32558 z"
       id="path3136"
       inkscape:connector-curvature="0"
       sodipodi:nodetypes="ccccscscccccssc" />
    <path
       style="fill:#f35a21;fill-opacity:1;fill-rule:nonzero;stroke:none"
       d="m 140.32005,108.21033 23.93484,0 0,76.143 -23.93484,0 z"
       id="rect3909"
       inkscape:connector-curvature="0" />
    <path
       style="fill:#f35a21;fill-opacity:1;fill-rule:nonzero;stroke:none"
       d="m 140.47296,84.90943 23.45336,0 0.12118,18.08641 -23.57454,0 z"
       id="rect3912"
       inkscape:connector-curvature="0"
       sodipodi:nodetypes="ccccc" />
    <path
       style="fill:#f35a21;fill-opacity:1;stroke:none"
       d="m 268.36009,80.043384 0,104.362256 23.89198,0 0,-52.26335 c 13.56161,-18.23078 35.67558,-12.93458 37.82722,0 l 0,52.2262 20.47848,0 0,-51.98385 c -0.54019,-10.9419 -5.43836,-18.63395 -10.14424,-22.78248 -7.27128,-6.4101 -30.7327,-7.12275 -38.68907,-1.93712 -3.96794,1.55002 -9.27027,5.70318 -9.27027,5.70318 l -0.0602,-5.21848 0,-27.991302 z"
       id="path3934"
       inkscape:connector-curvature="0"
       sodipodi:nodetypes="ccccccccsccccc" />
    <path
       style="fill:#f35a21;fill-opacity:1;stroke:none"
       d="m 380.48787,80.400787 23.02315,0 0,27.627783 24.11372,0.0606 c 0.93821,0.0122 1.27664,0.47426 1.27234,1.51468 l -0.0606,13.04883 c -0.004,1.12102 -0.73698,1.27811 -1.61957,1.37093 l -22.85768,0 0,35.86765 c 0.16086,4.38078 3.29895,11.29386 10.90571,10.9057 l 17.5703,0 c 2.24082,-0.18873 1.47163,14.6171 0,13.57154 -21.27834,2.9002 -30.4587,0.48821 -35.86765,0 -8.85715,-0.64254 -15.88005,-11.6834 -15.84089,-16.35855 l 0,-43.41491 -12.02889,0.21176 c -0.55918,-0.0236 -0.77756,-0.63795 -0.74602,-1.20684 l -0.0595,-14.1627 c -0.002,-0.77294 0.19899,-1.40663 1.0857,-1.48339 l 11.71574,-0.28883 z"
       id="path3936"
       inkscape:connector-curvature="0"
       sodipodi:nodetypes="ccccccccccccccccccccc" />
    <path
       style="fill:#f35a21;fill-opacity:1;stroke:none"
       d="m 448.98048,104.37744 19.70716,0 0,47.29718 c 4.91244,0.7805 5.83746,-1.01792 8.39696,-3.94143 l 35.47288,-43.52712 16.62256,-0.17136 -56.55097,80.19956 c -5.44107,2.27591 -19.52904,2.36466 -24.16269,0 z"
       id="path3938"
       inkscape:connector-curvature="0"
       sodipodi:nodetypes="ccccccccc" />
    <path
       style="fill:#f35a21;fill-opacity:1;stroke:none"
       d="m 234.10909,101.84867 c -11.43618,-2.390126 -27.12385,-0.50433 -37.56408,1.21174 -25.8033,5.21451 -31.24135,36.84983 1.81762,45.44044 21.496,6.6232 34.13472,8.70689 34.04484,15.06316 -0.11035,7.80413 -24.54148,10.62046 -34.04484,0.81069 l -20.47849,0 c -1.99576,9.06748 -1.36659,14.14023 22.65963,21.69024 8.40143,1.92787 20.19574,1.24973 31.02066,0.12117 39.27582,-4.23293 34.97077,-44.45142 0,-48.10627 -20.2808,-1.51344 -30.20381,-4.6187 -30.53198,-12.43821 -0.23113,-5.50728 17.49272,-8.61017 33.18816,0.01 l 20.55913,-0.41624 c 5.76591,-6.53713 0.10887,-17.29806 -20.67065,-23.38667 z"
       id="path3940"
       inkscape:connector-curvature="0"
       sodipodi:nodetypes="cccscccccsccc" />
    <path
       style="fill:#f35a21;fill-opacity:1;stroke:none"
       d="m 568.08026,55.880694 16.02278,-16.022777 c 53.51095,53.07717 15.45619,99.258173 -38.9859,144.204993 32.85418,-42.08455 76.36736,-83.89719 22.96312,-128.182216 z"
       id="path3942"
       inkscape:connector-curvature="0"
       sodipodi:nodetypes="cccc" />
    <path
       style="fill:#f35a21;fill-opacity:1;stroke:none"
       d="m 554.97912,48.047201 c 6.45757,-4.77907 12.28073,-10.25023 16.96443,-16.964428 C 443.3547,-38.178024 259.26917,39.203594 163.58555,73.493842 273.26281,37.334125 460.34457,-8.2913965 554.97912,48.047201 z"
       id="path3944"
       inkscape:connector-curvature="0"
       sodipodi:nodetypes="cccc" />
    <path
       style="fill:#f35a21;fill-opacity:1;stroke:none"
       d="m 517.01302,99.750542 15.93709,0 C 550.57137,74.471511 572.1133,49.519203 584.87419,23.835141 560.19365,47.492157 539.60206,74.420327 517.01302,99.750542 z"
       id="path3946"
       inkscape:connector-curvature="0"
       sodipodi:nodetypes="cccc" />
  </g>
</svg>
